<svg width="30" height="30" viewBox="0 0 30 30" fill="none" xmlns="http://www.w3.org/2000/svg">
<path d="M23.7567 25.9019C23.169 26.5906 22.3447 27.0381 21.4411 26.9974C19.1109 26.8926 14.2365 26.0615 9.58674 21.4044C4.93756 16.7478 4.10738 11.8663 4.00256 9.5321C3.9619 8.62656 4.40909 7.80047 5.09733 7.21185L7.31028 5.31924C7.89171 4.82198 8.77096 4.91666 9.23355 5.52636L12.2093 9.44833C12.5365 9.87961 12.5381 10.476 12.2132 10.9091L9.15911 14.9797L16.0012 21.8327L20.2615 18.8999C20.6898 18.6051 21.2583 18.6173 21.6737 18.9302L25.503 21.815C26.0772 22.2476 26.168 23.0757 25.7012 23.6228L23.7567 25.9019Z" fill="#00ADD9"/>
</svg>
