<svg width="13" height="14" viewBox="0 0 13 14" fill="none" xmlns="http://www.w3.org/2000/svg">
<g id="basil:star-solid">
<g clip-path="url(#clip0_76_158)">
<path id="Vector" d="M6.71839 2.46844C6.67375 2.39129 6.60969 2.32725 6.53261 2.28273C6.45552 2.23821 6.36813 2.21478 6.27918 2.21478C6.19022 2.21478 6.10283 2.23821 6.02575 2.28273C5.94867 2.32725 5.8846 2.39129 5.83997 2.46844L4.46191 4.85012C4.41418 4.9325 4.34861 5.00307 4.27004 5.05665C4.19148 5.11023 4.10192 5.14543 4.00797 5.15967L1.425 5.55068C0.991379 5.61686 0.839051 6.1657 1.17722 6.44673L3.10112 8.04436C3.27883 8.19252 3.36261 8.42621 3.31945 8.65378L2.81626 11.3038C2.79839 11.3979 2.80737 11.4951 2.84216 11.5844C2.87695 11.6736 2.93614 11.7512 3.01294 11.8082C3.08973 11.8652 3.18101 11.8993 3.27628 11.9066C3.37155 11.9139 3.46694 11.8942 3.5515 11.8496L5.98366 10.5655C6.07479 10.5175 6.17621 10.4924 6.27918 10.4924C6.38214 10.4924 6.48357 10.5175 6.57469 10.5655L9.00686 11.8496C9.09141 11.8942 9.18681 11.9139 9.28208 11.9066C9.37735 11.8993 9.46862 11.8652 9.54542 11.8082C9.62221 11.7512 9.6814 11.6736 9.71619 11.5844C9.75098 11.4951 9.75996 11.3979 9.74209 11.3038L9.2389 8.65378C9.21758 8.54191 9.22658 8.42634 9.26499 8.31915C9.30339 8.21195 9.36979 8.11706 9.45724 8.04436L11.3816 6.44622C11.7193 6.16621 11.567 5.61635 11.1328 5.55068L8.55089 5.15967C8.45685 5.1455 8.36719 5.11033 8.28853 5.05675C8.20988 5.00317 8.14423 4.93256 8.09645 4.85012L6.71839 2.46844Z" fill="#FFB800"/>
</g>
</g>
<defs>
<clipPath id="clip0_76_158">
<rect x="0.186035" y="0.943115" width="12.1862" height="12.219" rx="6.0931" fill="white"/>
</clipPath>
</defs>
</svg>
